<svg id="visual" viewBox="0 0 900 600" width="900" height="600" xmlns="http://www.w3.org/2000/svg" xmlns:xlink="http://www.w3.org/1999/xlink" version="1.1"><rect x="0" y="0" width="900" height="600" fill="#202020"></rect><path d="M0 426L25 427.8C50 429.7 100 433.3 150 430.5C200 427.7 250 418.3 300 426C350 433.7 400 458.3 450 467.2C500 476 550 469 600 460.3C650 451.7 700 441.3 750 434C800 426.7 850 422.3 875 420.2L900 418L900 601L875 601C850 601 800 601 750 601C700 601 650 601 600 601C550 601 500 601 450 601C400 601 350 601 300 601C250 601 200 601 150 601C100 601 50 601 25 601L0 601Z" fill="#8f8f8f"></path><path d="M0 425L25 433.3C50 441.7 100 458.3 150 472.3C200 486.3 250 497.7 300 494.2C350 490.7 400 472.3 450 472.7C500 473 550 492 600 500.2C650 508.3 700 505.7 750 494.8C800 484 850 465 875 455.5L900 446L900 601L875 601C850 601 800 601 750 601C700 601 650 601 600 601C550 601 500 601 450 601C400 601 350 601 300 601C250 601 200 601 150 601C100 601 50 601 25 601L0 601Z" fill="#787878"></path><path d="M0 493L25 493C50 493 100 493 150 493.7C200 494.3 250 495.7 300 497.5C350 499.3 400 501.7 450 501.5C500 501.3 550 498.7 600 500.8C650 503 700 510 750 510.8C800 511.7 850 506.3 875 503.7L900 501L900 601L875 601C850 601 800 601 750 601C700 601 650 601 600 601C550 601 500 601 450 601C400 601 350 601 300 601C250 601 200 601 150 601C100 601 50 601 25 601L0 601Z" fill="#626262"></path><path d="M0 528L25 530.3C50 532.7 100 537.3 150 533C200 528.7 250 515.3 300 511.5C350 507.7 400 513.3 450 511.3C500 509.3 550 499.7 600 498C650 496.3 700 502.7 750 509C800 515.3 850 521.7 875 524.8L900 528L900 601L875 601C850 601 800 601 750 601C700 601 650 601 600 601C550 601 500 601 450 601C400 601 350 601 300 601C250 601 200 601 150 601C100 601 50 601 25 601L0 601Z" fill="#4c4c4c"></path><path d="M0 545L25 548.3C50 551.7 100 558.3 150 553.7C200 549 250 533 300 529.2C350 525.3 400 533.7 450 537.5C500 541.3 550 540.7 600 538.7C650 536.7 700 533.3 750 534.7C800 536 850 542 875 545L900 548L900 601L875 601C850 601 800 601 750 601C700 601 650 601 600 601C550 601 500 601 450 601C400 601 350 601 300 601C250 601 200 601 150 601C100 601 50 601 25 601L0 601Z" fill="#383838"></path><path d="M0 585L25 582.5C50 580 100 575 150 569.5C200 564 250 558 300 555.8C350 553.7 400 555.3 450 555C500 554.7 550 552.3 600 551.3C650 550.3 700 550.7 750 554C800 557.3 850 563.7 875 566.8L900 570L900 601L875 601C850 601 800 601 750 601C700 601 650 601 600 601C550 601 500 601 450 601C400 601 350 601 300 601C250 601 200 601 150 601C100 601 50 601 25 601L0 601Z" fill="#242424"></path></svg>